<svg height="480pt" viewBox="0 0 480.17115 480" width="480pt" xmlns="http://www.w3.org/2000/svg"><path d="m448.6875 39.535156-47.550781 79.640625c-4.363281 7.300781-13.675781 9.910157-21.199219 5.941407l-131.914062-69.582032-32 48v46.640625c0 36.488281-15.574219 71.246094-42.808594 95.535157l-144.101563 128.496093c-10.878906 8.636719-18.171875 21-20.472656 34.695313-2.417969 15.671875 2.132813 31.621094 12.457031 43.660156 10.320313 12.039062 25.386719 18.96875 41.246094 18.972656h2.550781c14.769531-.007812 28.894531-6.027344 39.128907-16.671875l149.753906-162.785156c17.113281-18.613281 39.359375-31.738281 63.925781-37.71875l82.554687-20.105469c42.269532-11.027344 71.765626-49.203125 71.765626-92.886718v-56.984376c1.460937-18.1875-7.605469-35.605468-23.335938-44.847656zm-384.664062 400c-13.253907 0-24-10.746094-24-24s10.746093-24 24-24c13.253906 0 24 10.746094 24 24s-10.746094 24-24 24zm0 0" fill="#c4c4c2"/><path d="m284.421875 121.632812 85.824219 43.007813-17.917969 35.761719-85.828125-43.007813zm0 0" fill="#a6a6a4"/><path d="m287.949219 168.144531 17.925781-35.757812 14.304688 7.171875-17.925782 35.757812zm0 0" fill="#969695"/><path d="m316.554688 182.476562 17.925781-35.757812 14.304687 7.171875-17.925781 35.757813zm0 0" fill="#969695"/><path d="m248.023438 55.535156-12.671876-6.9375c-12.855468-7.035156-28.953124-3.160156-37.199218 8.953125-4.382813 6.429688-5.941406 14.371094-4.3125 21.980469 1.625 7.609375 6.292968 14.222656 12.921875 18.300781l9.261719 5.703125zm0 0" fill="#a6a6a4"/><path d="m384.023438 16.335938v-6.058594c-24.859376-5.242188-50.78125-.988282-72.664063 11.921875-16.449219 13.039062-32.054687 27.113281-46.71875 42.136719l66.910156 35.300781zm0 0" fill="#a6a6a4"/><path d="m280.71875 48.742188c-6.09375 5.785156-11.839844 11.375-16.078125 15.550781l66.910156 35.304687 11.410157-18.09375zm0 0" fill="#9e9e9c"/><path d="m29.113281 374.207031c-10.878906 8.636719-18.171875 21-20.472656 34.695313-2.417969 15.671875 2.132813 31.621094 12.457031 43.660156 10.320313 12.039062 25.386719 18.96875 41.246094 18.972656h2.550781c14.769531-.007812 28.894531-6.027344 39.128907-16.671875l138.710937-150.785156c-55.457031 13.617187-111.746094 23.605469-168.503906 29.90625zm34.910157 65.328125c-13.253907 0-24-10.746094-24-24s10.746093-24 24-24c13.253906 0 24 10.746094 24 24s-10.746094 24-24 24zm0 0" fill="#babab8"/><path d="m64.023438 447.535156c17.671874 0 32-14.328125 32-32s-14.328126-32-32-32c-17.671876 0-32 14.328125-32 32s14.328124 32 32 32zm0-48c8.835937 0 16 7.164063 16 16 0 8.835938-7.164063 16-16 16-8.835938 0-16-7.164062-16-16 0-8.835937 7.164062-16 16-16zm0 0"/><path d="m62.34375 479.535156h2.550781c17.003907-.046875 33.261719-6.996094 45.042969-19.257812l149.726562-162.78125c16.03125-17.46875 36.886719-29.773438 59.929688-35.363282l82.6875-20.132812c45.792969-11.949219 77.742188-53.308594 77.742188-100.632812v-56.992188c1.539062-21.03125-9.039063-41.101562-27.253907-51.71875-3.792969-2.246094-8.683593-1.007812-10.945312 2.773438l-47.550781 79.640624c-2.183594 3.652344-6.839844 4.960938-10.601563 2.976563l-40.742187-21.496094 47.871093-75.914062c.808594-1.289063 1.234375-2.78125 1.222657-4.300781v-6.058594c0-3.660156-2.484376-6.851563-6.03125-7.75-27.050782-5.8125-55.300782-1.164063-79.0625 13.007812-15.417969 12.007813-30.015626 25.023438-43.707032 38.96875l-11.359375-5.984375-12.640625-6.9375c-17.347656-9.4375-39.054687-3.351562-48.972656 13.722657-9.921875 17.078124-4.449219 38.945312 12.34375 49.34375l5.460938 3.359374v42.167969c-.003907 34.21875-14.601563 66.8125-40.136719 89.597657l-143.894531 128.257812c-12.425782 9.878906-20.730469 24.03125-23.304688 39.695312-2.753906 17.976563 2.476562 36.257813 14.316406 50.058594 11.84375 13.800782 29.121094 21.746094 47.308594 21.75zm253.464844-450.671875c17.671875-10.378906 38.265625-14.679687 58.617187-12.234375l-45.675781 72.433594-22.054688-11.632812-28.617187-15.085938c11.796875-12.011719 24.402344-23.195312 37.730469-33.480469zm-114.144532 49c-1.703124-7.835937 1.332032-15.945312 7.761719-20.734375 6.429688-4.792968 15.066407-5.378906 22.085938-1.507812l5.007812 2.746094-22.894531 34.3125-2.695312-1.65625c-4.769532-2.925782-8.121094-7.6875-9.265626-13.160157zm-185.113281 332.207031c2.035157-11.839843 8.40625-22.492187 17.875-29.886718l144.109375-128.503906c28.925782-25.8125 45.472656-62.738282 45.488282-101.503907v-44.242187l26.65625-40 125.519531 66.21875c11.28125 5.972656 25.265625 2.070312 31.824219-8.882813l43.113281-72.199219c9.183593 8.53125 13.9375 20.8125 12.886719 33.304688v56.992188c0 40-26.972657 74.964843-65.664063 85.121093l-82.550781 20.09375c-26.113282 6.335938-49.753906 20.285157-67.921875 40.082031l-149.597657 162.65625c-8.746093 9.066407-20.796874 14.195313-33.394531 14.214844h-2.550781c-13.535156-.003906-26.390625-5.921875-35.191406-16.199218-8.804688-10.28125-12.675782-23.890626-10.601563-37.265626zm0 0"/><path d="m262.910156 164.542969 85.824219 42.992187c1.109375.558594 2.335937.851563 3.578125.847656 3.027344.003907 5.800781-1.703124 7.160156-4.410156l17.917969-35.765625c1.980469-3.949219.382813-8.757812-3.566406-10.738281l-85.800781-42.992188c-3.949219-1.976562-8.757813-.378906-10.734376 3.570313l-17.921874 35.757813c-1.980469 3.953124-.382813 8.757812 3.570312 10.738281zm42.929688 3.625 10.753906-21.433594 14.300781 7.199219-10.75 21.457031zm42.910156 21.503906-14.300781-7.203125 10.75-21.460938 14.304687 7.199219zm-60.796875-57.304687 14.304687 7.199218-10.753906 21.457032-14.304687-7.160157zm0 0"/></svg>